<?xml version="1.0" encoding="UTF-8"?>
<!DOCTYPE svg PUBLIC "-//W3C//DTD SVG 1.1//EN" "http://www.w3.org/Graphics/SVG/1.1/DTD/svg11.dtd">
<!-- Creator: CorelDRAW 2021 (64-Bit Evaluation Version) -->
<svg xmlns="http://www.w3.org/2000/svg" xml:space="preserve" width="70mm" height="35mm" version="1.1" style="shape-rendering:geometricPrecision; text-rendering:geometricPrecision; image-rendering:optimizeQuality; fill-rule:evenodd; clip-rule:evenodd"
viewBox="0 0 7000 3500"
 xmlns:xlink="http://www.w3.org/1999/xlink"
 xmlns:xodm="http://www.corel.com/coreldraw/odm/2003">
 <defs>
  <style type="text/css">
   <![CDATA[
    .fil0 {fill:#373435;fill-rule:nonzero}
   ]]>
  </style>
 </defs>
 <g id="Camada_x0020_1">
  <metadata id="CorelCorpID_0Corel-Layer"/>
  <g id="_2096324649776">
   <polygon class="fil0" points="1023.86,1568.26 801.25,1568.26 801.25,990.5 871.14,990.5 871.14,1500.7 1023.86,1500.7 "/>
   <path id="_1" class="fil0" d="M1411.75 1399.75c0,50.34 -11.52,91.24 -34.69,122.69 -26.79,36.76 -65.61,55.14 -116.61,55.14 -51.51,0 -92.15,-16.18 -121.79,-48.41 -29.64,-32.22 -44.52,-72.22 -44.52,-119.98l0 -418.69 67.56 0 0 414.04c0,30.41 7.38,55.13 22.13,74.03 16.83,22 41.03,33 72.74,33 33.13,0 56.56,-12.55 70.28,-37.79 9.96,-18.38 15.01,-44.01 15.01,-77.14l0 -406.14 69.89 0 0 409.25z"/>
   <path id="_2" class="fil0" d="M1947.58 1528.91c-27.18,17.74 -53.97,30.55 -80.25,38.44 -26.27,7.9 -56.17,11.78 -89.69,11.78 -83.48,0 -154.66,-30.54 -213.68,-91.76 -59.02,-61.22 -88.53,-134.09 -88.53,-218.6 0,-79.86 29.25,-147.94 87.75,-204.5 58.5,-56.43 128.39,-84.64 209.67,-84.64 34.17,0 65.1,3.75 92.93,11.39 27.83,7.63 55.14,19.93 81.8,36.75l0 89.96c-24.08,-25.89 -49.7,-44.4 -76.75,-55.4 -27.05,-11.13 -58.63,-16.69 -94.87,-16.69 -62.9,0 -117.26,22.13 -162.95,66.26 -45.69,44.14 -68.47,97.46 -68.47,159.97 0,64.72 22.78,120.89 68.47,168.78 45.69,47.75 100.82,71.7 165.41,71.7 33,0 66.13,-7.64 99.14,-22.78 27.82,-13.07 51.12,-29.25 70.02,-48.67l0 88.01z"/>
   <path id="_3" class="fil0" d="M2360.45 1568.26l-64.46 0c0,-21.48 -2.07,-47.76 -6.34,-78.82 -2.07,-16.83 -4.79,-31.45 -8.28,-44.14 -3.37,-12.55 -6.6,-24.97 -9.84,-37.01l-190.64 0 0 159.97 -69.12 0 0 -592.77c53.58,28.86 103.16,66.65 148.71,113.37 53.59,54.62 97.07,117.01 130.72,187.41 22.01,45.56 39.09,95.39 51.13,149.1 12.03,53.84 18.12,101.47 18.12,142.89zm-109.24 -226.76c-7.38,-17.86 -17.21,-38.05 -29.38,-60.57 -13.72,-25.75 -27.95,-48.92 -42.71,-69.37 -29.64,-41.93 -62.38,-77.91 -98.23,-107.94l0 237.88 170.32 0z"/>
   <path id="_4" class="fil0" d="M2682.97 1085.5c-9.44,-8.41 -17.6,-14.37 -24.46,-17.99 -20.96,-12.56 -41.54,-18.77 -61.48,-18.77 -27.3,0 -52.67,10.48 -76.1,31.45 -23.42,20.97 -35.07,46.21 -35.07,75.59 0,31.45 14.23,59.79 42.58,85.03 26.27,23.04 52.42,46.21 78.69,69.24 28.86,34.17 43.36,77.14 43.36,129.17 0,27.7 -6.6,55.53 -19.67,83.35 -9.97,21.49 -20.45,36.76 -31.46,45.69l-96.03 0c24.2,-20.45 42.06,-39.6 53.58,-57.47 15.27,-23.68 22.91,-48.92 22.91,-75.71 0,-37.27 -13.98,-69.37 -41.8,-96.16 -26.28,-22.52 -52.42,-45.43 -78.7,-68.6 -28.34,-31.97 -42.58,-71.96 -42.58,-119.72 0,-47.24 18.64,-87.1 55.92,-119.46 37.27,-32.23 78.82,-48.41 124.5,-48.41 29.38,0 57.99,9.19 85.81,27.7l0 75.07z"/>
   <path id="_5" class="fil0" d="M3398.45 1528.91c-27.18,17.74 -53.97,30.55 -80.25,38.44 -26.27,7.9 -56.17,11.78 -89.69,11.78 -83.48,0 -154.66,-30.54 -213.68,-91.76 -59.02,-61.22 -88.53,-134.09 -88.53,-218.6 0,-79.86 29.25,-147.94 87.75,-204.5 58.5,-56.43 128.39,-84.64 209.67,-84.64 34.17,0 65.1,3.75 92.93,11.39 27.83,7.63 55.14,19.93 81.8,36.75l0 89.96c-24.08,-25.89 -49.7,-44.4 -76.75,-55.4 -27.05,-11.13 -58.63,-16.69 -94.87,-16.69 -62.9,0 -117.26,22.13 -162.95,66.26 -45.69,44.14 -68.47,97.46 -68.47,159.97 0,64.72 22.78,120.89 68.47,168.78 45.69,47.75 100.82,71.7 165.41,71.7 33,0 66.13,-7.64 99.14,-22.78 27.82,-13.07 51.12,-29.25 70.02,-48.67l0 88.01z"/>
   <path id="_6" class="fil0" d="M3820.77 1568.26l-64.46 0c0,-21.48 -2.07,-47.76 -6.34,-78.82 -2.07,-16.83 -4.79,-31.45 -8.28,-44.14 -3.37,-12.55 -6.6,-24.97 -9.84,-37.01l-190.64 0 0 159.97 -69.12 0 0 -592.77c53.58,28.86 103.16,66.65 148.71,113.37 53.59,54.62 97.07,117.01 130.72,187.41 22.01,45.56 39.09,95.39 51.13,149.1 12.03,53.84 18.12,101.47 18.12,142.89zm-109.24 -226.76c-7.38,-17.86 -17.21,-38.05 -29.38,-60.57 -13.72,-25.75 -27.95,-48.92 -42.71,-69.37 -29.64,-41.93 -62.38,-77.91 -98.23,-107.94l0 237.88 170.32 0z"/>
   <path id="_7" class="fil0" d="M4185.62 1568.26c-28.87,-10.48 -51.13,-20.19 -66.92,-29.12 -18.89,-10.48 -38.05,-25.24 -57.72,-44.14 -19.67,-18.89 -37.92,-44.26 -54.62,-76.36 -18.38,-35.2 -27.57,-66.13 -27.57,-92.93 28.86,-2.58 56.56,-16.95 83.35,-43.22 28.87,-28.35 43.23,-59.67 43.23,-93.71 0,-36.76 -14.49,-67.69 -43.36,-92.93 -28.99,-25.24 -62.64,-37.79 -101.08,-37.79l0 510.2 -67.56 0 0 -577.76 82.7 0c54.11,0 100.83,19.41 140.17,58.24 39.35,38.83 59.02,85.29 59.02,139.39 0,40.39 -12.81,77.4 -38.57,110.92 -22,28.86 -49.05,50.35 -81.02,64.59 0.52,7.37 4.53,17.86 12.17,31.45 7.63,13.59 15.66,24.98 24.07,33.91 16.31,17.21 30.93,30.93 44.01,40.9 16.3,12.03 32.87,20.19 49.7,24.33l0 74.03z"/>
   <path id="_8" class="fil0" d="M4606 1278.6c0,78.18 -26.66,146 -79.86,203.46 -53.32,57.47 -117.91,86.2 -194.01,86.2l-77.14 0 0 -577.76 62.9 0c78.82,0 146.38,28.34 203.07,85.03 56.69,56.69 85.04,124.38 85.04,203.07zm-69.12 -3.23c0,-58.37 -21.09,-109.11 -63.42,-152.47 -42.32,-43.36 -92.54,-64.97 -150.91,-64.97l0 442.77c59.41,0 109.89,-22.13 151.69,-66.53 41.81,-44.39 62.64,-97.32 62.64,-158.8z"/>
   <path id="_9" class="fil0" d="M5281.22 1276.66c0,82.45 -29.26,153.5 -87.89,213.04 -58.5,59.66 -129.03,89.43 -211.48,89.43 -82.96,0 -154.66,-29.64 -214.98,-89.04 -60.44,-59.28 -90.6,-130.47 -90.6,-213.43 0,-81.93 29.64,-152.07 89.05,-210.32 59.28,-58.37 129.94,-87.49 211.87,-87.49 82.96,0 154.41,28.99 214.2,87.11 59.93,57.98 89.83,128.26 89.83,210.7zm-70.67 -3.23c0,-63.03 -22.65,-116.88 -67.82,-161.53 -45.17,-44.65 -99.27,-67.04 -162.43,-67.04 -64.07,0 -119.33,22.65 -165.54,67.82 -46.2,45.17 -69.37,99.79 -69.37,163.98 0,64.07 23.17,119.46 69.37,166.31 46.21,46.73 101.47,70.15 165.54,70.15 63.68,0 117.91,-23.81 162.82,-71.31 44.91,-47.63 67.43,-103.67 67.43,-168.38z"/>
   <path id="_10" class="fil0" d="M5608.14 1085.5c-9.44,-8.41 -17.6,-14.37 -24.46,-17.99 -20.96,-12.56 -41.54,-18.77 -61.48,-18.77 -27.3,0 -52.67,10.48 -76.1,31.45 -23.42,20.97 -35.07,46.21 -35.07,75.59 0,31.45 14.23,59.79 42.58,85.03 26.27,23.04 52.42,46.21 78.69,69.24 28.86,34.17 43.36,77.14 43.36,129.17 0,27.7 -6.6,55.53 -19.67,83.35 -9.97,21.49 -20.45,36.76 -31.46,45.69l-96.03 0c24.2,-20.45 42.06,-39.6 53.58,-57.47 15.27,-23.68 22.91,-48.92 22.91,-75.71 0,-37.27 -13.98,-69.37 -41.8,-96.16 -26.28,-22.52 -52.42,-45.43 -78.7,-68.6 -28.34,-31.97 -42.58,-71.96 -42.58,-119.72 0,-47.24 18.64,-87.1 55.92,-119.46 37.27,-32.23 78.82,-48.41 124.5,-48.41 29.38,0 57.99,9.19 85.81,27.7l0 75.07z"/>
   <path id="_11" class="fil0" d="M6282.98 1276.66c0,82.45 -29.26,153.5 -87.89,213.04 -58.5,59.66 -129.03,89.43 -211.48,89.43 -82.96,0 -154.66,-29.64 -214.98,-89.04 -60.44,-59.28 -90.6,-130.47 -90.6,-213.43 0,-81.93 29.64,-152.07 89.05,-210.32 59.28,-58.37 129.94,-87.49 211.87,-87.49 82.96,0 154.41,28.99 214.2,87.11 59.93,57.98 89.83,128.26 89.83,210.7zm-70.67 -3.23c0,-63.03 -22.65,-116.88 -67.82,-161.53 -45.17,-44.65 -99.27,-67.04 -162.43,-67.04 -64.07,0 -119.33,22.65 -165.54,67.82 -46.2,45.17 -69.37,99.79 -69.37,163.98 0,64.07 23.17,119.46 69.37,166.31 46.21,46.73 101.47,70.15 165.54,70.15 63.68,0 117.91,-23.81 162.82,-71.31 44.91,-47.63 67.43,-103.67 67.43,-168.38z"/>
   <path class="fil0" d="M2269.98 2273.67l-44.43 0 0 -79.66c0,-27.2 -3.35,-50.82 -9.97,-70.93 -6.63,-20.11 -18.17,-42.02 -34.61,-65.71 -8.58,-12.32 -19.96,-24.94 -34.14,-37.96 -17.7,-16.14 -35.78,-28.76 -54.1,-37.96l0 292.22 -41.62 0 0 -354.03c20.26,5.69 37.41,12 51.29,19.02 13.95,6.93 29.46,16.68 46.61,29.23 17.07,12.47 32.5,26.5 46.07,42.01 12.08,13.25 22.83,27.83 32.34,43.65l0 -128.07 42.56 0 0 348.19z"/>
   <path id="_1_0" class="fil0" d="M2506.09 2172.18c0,30.32 -6.94,54.96 -20.89,73.9 -16.14,22.13 -39.52,33.2 -70.23,33.2 -31.03,0 -55.5,-9.74 -73.35,-29.15 -17.85,-19.41 -26.82,-43.49 -26.82,-72.26l0 -252.15 40.69 0 0 249.35c0,18.31 4.45,33.2 13.33,44.58 10.13,13.25 24.71,19.88 43.81,19.88 19.95,0 34.06,-7.56 42.32,-22.76 6,-11.07 9.04,-26.5 9.04,-46.46l0 -244.59 42.1 0 0 246.46z"/>
   <path id="_2_1" class="fil0" d="M2758.63 1956.5l-19.02 36.56c-19.64,-16.13 -42.17,-26.42 -67.5,-30.86l0 311.47 -43.03 0 0 -311.01c-13.33,2.19 -25.41,5.85 -36.32,10.92 -10.99,5.06 -21.51,11.69 -31.65,19.95l-20.89 -35.62c15.51,-11.62 32.58,-20.74 51.29,-27.21 18.63,-6.46 38.12,-9.66 58.38,-9.66 19.65,0 38.9,3.04 57.68,9.2 18.87,6.15 35.86,14.96 51.06,26.26z"/>
   <path id="_3_2" class="fil0" d="M2976.49 2273.67c-17.38,-6.31 -30.79,-12.16 -40.3,-17.54 -11.38,-6.31 -22.91,-15.2 -34.76,-26.58 -11.85,-11.38 -22.84,-26.66 -32.89,-45.99 -11.07,-21.2 -16.61,-39.83 -16.61,-55.96 17.39,-1.56 34.07,-10.21 50.2,-26.04 17.38,-17.07 26.04,-35.93 26.04,-56.43 0,-22.14 -8.73,-40.77 -26.12,-55.97 -17.46,-15.19 -37.72,-22.76 -60.87,-22.76l0 307.27 -40.69 0 0 -347.95 49.81 0c32.58,0 60.72,11.69 84.41,35.07 23.7,23.39 35.55,51.37 35.55,83.95 0,24.32 -7.72,46.61 -23.23,66.8 -13.25,17.38 -29.54,30.32 -48.8,38.9 0.32,4.44 2.73,10.75 7.33,18.94 4.6,8.18 9.43,15.04 14.5,20.42 9.82,10.37 18.63,18.63 26.5,24.63 9.82,7.25 19.8,12.16 29.93,14.65l0 44.59z"/>
   <polygon id="_4_3" class="fil0" points="3064.57,2273.67 3022.01,2273.67 3022.01,1925.72 3064.57,1925.72 "/>
   <path id="_5_4" class="fil0" d="M3391.32 2249.97c-16.37,10.68 -32.5,18.4 -48.33,23.15 -15.82,4.76 -33.82,7.1 -54.01,7.1 -50.28,0 -93.15,-18.4 -128.69,-55.27 -35.55,-36.87 -53.32,-80.75 -53.32,-131.65 0,-48.09 17.62,-89.09 52.85,-123.15 35.23,-33.99 77.32,-50.98 126.27,-50.98 20.58,0 39.21,2.26 55.97,6.86 16.76,4.6 33.2,12 49.26,22.13l0 54.18c-14.5,-15.59 -29.93,-26.74 -46.22,-33.36 -16.29,-6.71 -35.31,-10.06 -57.14,-10.06 -37.88,0 -70.62,13.33 -98.13,39.91 -27.52,26.58 -41.23,58.69 -41.23,96.34 0,38.98 13.71,72.8 41.23,101.64 27.51,28.77 60.72,43.19 99.61,43.19 19.88,0 39.84,-4.6 59.71,-13.72 16.76,-7.87 30.79,-17.62 42.17,-29.31l0 53z"/>
   <polygon id="_6_5" class="fil0" points="3476.28,2273.67 3433.72,2273.67 3433.72,1925.72 3476.28,1925.72 "/>
   <path id="_7_6" class="fil0" d="M3887.68 2098.06c0,49.65 -17.61,92.44 -52.92,128.3 -35.24,35.93 -77.72,53.86 -127.37,53.86 -49.96,0 -93.15,-17.85 -129.47,-53.63 -36.4,-35.7 -54.56,-78.57 -54.56,-128.53 0,-49.34 17.85,-91.59 53.63,-126.67 35.7,-35.15 78.25,-52.69 127.59,-52.69 49.97,0 93,17.46 129.01,52.46 36.09,34.92 54.09,77.24 54.09,126.9zm-42.56 -1.95c0,-37.96 -13.64,-70.39 -40.84,-97.28 -27.2,-26.89 -59.79,-40.38 -97.82,-40.38 -38.59,0 -71.87,13.64 -99.7,40.85 -27.83,27.2 -41.78,60.09 -41.78,98.76 0,38.58 13.95,71.94 41.78,100.16 27.83,28.14 61.11,42.24 99.7,42.24 38.35,0 71,-14.34 98.05,-42.94 27.05,-28.69 40.61,-62.44 40.61,-101.41z"/>
   <path id="_8_7" class="fil0" d="M4154.34 2273.67l-44.43 0 0 -79.66c0,-27.2 -3.35,-50.82 -9.98,-70.93 -6.63,-20.11 -18.16,-42.02 -34.61,-65.71 -8.57,-12.32 -19.95,-24.94 -34.14,-37.96 -17.69,-16.14 -35.78,-28.76 -54.09,-37.96l0 292.22 -41.63 0 0 -354.03c20.27,5.69 37.42,12 51.29,19.02 13.95,6.93 29.47,16.68 46.61,29.23 17.07,12.47 32.51,26.5 46.07,42.01 12.08,13.25 22.84,27.83 32.35,43.65l0 -128.07 42.56 0 0 348.19z"/>
   <polygon id="_9_8" class="fil0" points="4241.32,2273.67 4198.76,2273.67 4198.76,1925.72 4241.32,1925.72 "/>
   <path id="_10_9" class="fil0" d="M4440.78 1982.93c-5.69,-5.07 -10.6,-8.65 -14.73,-10.84 -12.62,-7.56 -25.02,-11.3 -37.02,-11.3 -16.45,0 -31.73,6.32 -45.83,18.94 -14.11,12.63 -21.13,27.83 -21.13,45.52 0,18.95 8.58,36.02 25.65,51.21 15.82,13.88 31.56,27.83 47.39,41.71 17.38,20.57 26.11,46.45 26.11,77.79 0,16.68 -3.98,33.44 -11.85,50.19 -6,12.94 -12.31,22.14 -18.94,27.52l-57.84 0c14.58,-12.32 25.34,-23.85 32.27,-34.61 9.2,-14.26 13.8,-29.46 13.8,-45.6 0,-22.45 -8.42,-41.78 -25.18,-57.91 -15.82,-13.56 -31.56,-27.36 -47.39,-41.31 -17.07,-19.26 -25.64,-43.34 -25.64,-72.1 0,-28.45 11.22,-52.46 33.67,-71.95 22.45,-19.41 47.47,-29.15 74.99,-29.15 17.69,0 34.92,5.53 51.67,16.68l0 45.21z"/>
   <path id="_11_10" class="fil0" d="M4692.4 1956.5l-19.02 36.56c-19.64,-16.13 -42.17,-26.42 -67.5,-30.86l0 311.47 -43.03 0 0 -311.01c-13.33,2.19 -25.41,5.85 -36.32,10.92 -10.99,5.06 -21.51,11.69 -31.65,19.95l-20.89 -35.62c15.51,-11.62 32.58,-20.74 51.29,-27.21 18.63,-6.46 38.12,-9.66 58.38,-9.66 19.65,0 38.9,3.04 57.68,9.2 18.87,6.15 35.86,14.96 51.06,26.26z"/>
   <path id="_12" class="fil0" d="M4940.04 2273.67l-38.82 0c0,-12.94 -1.25,-28.76 -3.82,-47.47 -1.25,-10.13 -2.88,-18.94 -4.99,-26.58 -2.02,-7.56 -3.97,-15.04 -5.92,-22.29l-114.82 0 0 96.34 -41.62 0 0 -357c32.27,17.39 62.12,40.15 89.56,68.29 32.27,32.89 58.46,70.46 78.73,112.86 13.25,27.44 23.54,57.45 30.79,89.8 7.25,32.42 10.91,61.11 10.91,86.05zm-65.79 -136.56c-4.44,-10.76 -10.37,-22.92 -17.69,-36.48 -8.26,-15.51 -16.84,-29.47 -25.72,-41.78 -17.85,-25.26 -37.58,-46.92 -59.17,-65.01l0 143.27 102.58 0z"/>
  </g>
 </g>
</svg>
