<?xml version="1.0" encoding="UTF-8"?>
<!DOCTYPE svg PUBLIC "-//W3C//DTD SVG 1.1//EN" "http://www.w3.org/Graphics/SVG/1.1/DTD/svg11.dtd">
<!-- Creator: CorelDRAW 2021 (64-Bit Evaluation Version) -->
<svg xmlns="http://www.w3.org/2000/svg" xml:space="preserve" width="44mm" height="11.5mm" version="1.1" style="shape-rendering:geometricPrecision; text-rendering:geometricPrecision; image-rendering:optimizeQuality; fill-rule:evenodd; clip-rule:evenodd"
viewBox="0 0 4400 1150"
 xmlns:xlink="http://www.w3.org/1999/xlink"
 xmlns:xodm="http://www.corel.com/coreldraw/odm/2003">
 <defs>
  <style type="text/css">
   <![CDATA[
    .fil0 {fill:#373435;fill-rule:nonzero}
   ]]>
  </style>
 </defs>
 <g id="Camada_x0020_1">
  <metadata id="CorelCorpID_0Corel-Layer"/>
  <g id="_1714409735520">
   <polygon class="fil0" points="256.87,509.5 83.82,509.5 83.82,60.38 138.15,60.38 138.15,456.98 256.87,456.98 "/>
   <path id="_1" class="fil0" d="M558.39 378.51c0,39.13 -8.96,70.93 -26.97,95.37 -20.82,28.58 -51.01,42.86 -90.65,42.86 -40.04,0 -71.63,-12.57 -94.67,-37.62 -23.04,-25.06 -34.61,-56.14 -34.61,-93.27l0 -325.47 52.52 0 0 321.85c0,23.64 5.73,42.86 17.2,57.55 13.08,17.1 31.9,25.65 56.55,25.65 25.75,0 43.96,-9.76 54.63,-29.37 7.74,-14.29 11.67,-34.21 11.67,-59.97l0 -315.71 54.33 0 0 318.13z"/>
   <path id="_2" class="fil0" d="M974.91 478.92c-21.13,13.78 -41.96,23.74 -62.38,29.88 -20.42,6.13 -43.66,9.15 -69.72,9.15 -64.89,0 -120.23,-23.74 -166.11,-71.33 -45.87,-47.59 -68.81,-104.23 -68.81,-169.93 0,-62.07 22.74,-114.99 68.21,-158.96 45.48,-43.86 99.8,-65.8 162.99,-65.8 26.56,0 50.6,2.92 72.23,8.86 21.63,5.93 42.86,15.49 63.59,28.57l0 69.92c-18.72,-20.12 -38.64,-34.51 -59.66,-43.06 -21.03,-8.65 -45.58,-12.98 -73.75,-12.98 -48.89,0 -91.15,17.21 -126.66,51.52 -35.52,34.3 -53.23,75.75 -53.23,124.35 0,50.3 17.71,93.97 53.23,131.19 35.51,37.12 78.37,55.74 128.57,55.74 25.66,0 51.41,-5.94 77.07,-17.71 21.63,-10.16 39.74,-22.74 54.43,-37.83l0 68.42z"/>
   <path id="_3" class="fil0" d="M1295.85 509.5l-50.11 0c0,-16.7 -1.61,-37.12 -4.93,-61.27 -1.61,-13.08 -3.72,-24.45 -6.44,-34.31 -2.61,-9.76 -5.13,-19.42 -7.64,-28.77l-148.2 0 0 124.35 -53.72 0 0 -460.79c41.65,22.44 80.18,51.82 115.6,88.14 41.65,42.45 75.45,90.95 101.61,145.68 17.1,35.41 30.38,74.15 39.74,115.9 9.36,41.85 14.09,78.88 14.09,111.07zm-84.92 -176.27c-5.73,-13.88 -13.38,-29.57 -22.84,-47.08 -10.66,-20.02 -21.73,-38.03 -33.2,-53.93 -23.04,-32.59 -48.49,-60.56 -76.36,-83.9l0 184.91 132.4 0z"/>
   <path id="_4" class="fil0" d="M1546.56 134.23c-7.34,-6.54 -13.68,-11.17 -19.01,-13.98 -16.3,-9.76 -32.3,-14.59 -47.79,-14.59 -21.23,0 -40.95,8.15 -59.16,24.45 -18.21,16.29 -27.26,35.91 -27.26,58.75 0,24.45 11.06,46.48 33.1,66.1 20.42,17.91 40.74,35.92 61.17,53.83 22.43,26.56 33.7,59.96 33.7,100.4 0,21.53 -5.13,43.16 -15.29,64.8 -7.75,16.7 -15.9,28.57 -24.45,35.51l-74.65 0c18.81,-15.9 32.7,-30.79 41.65,-44.67 11.87,-18.41 17.81,-38.03 17.81,-58.86 0,-28.97 -10.87,-53.92 -32.5,-74.75 -20.42,-17.5 -40.74,-35.31 -61.17,-53.32 -22.03,-24.85 -33.1,-55.94 -33.1,-93.06 0,-36.73 14.49,-67.71 43.47,-92.86 28.97,-25.06 61.27,-37.63 96.78,-37.63 22.84,0 45.07,7.14 66.7,21.53l0 58.35z"/>
   <path id="_5" class="fil0" d="M2102.73 478.92c-21.13,13.78 -41.96,23.74 -62.38,29.88 -20.42,6.13 -43.66,9.15 -69.72,9.15 -64.89,0 -120.23,-23.74 -166.11,-71.33 -45.87,-47.59 -68.81,-104.23 -68.81,-169.93 0,-62.07 22.74,-114.99 68.21,-158.96 45.48,-43.86 99.8,-65.8 162.99,-65.8 26.56,0 50.6,2.92 72.23,8.86 21.63,5.93 42.86,15.49 63.59,28.57l0 69.92c-18.72,-20.12 -38.64,-34.51 -59.66,-43.06 -21.03,-8.65 -45.58,-12.98 -73.75,-12.98 -48.89,0 -91.15,17.21 -126.66,51.52 -35.52,34.3 -53.23,75.75 -53.23,124.35 0,50.3 17.71,93.97 53.23,131.19 35.51,37.12 78.37,55.74 128.57,55.74 25.66,0 51.41,-5.94 77.07,-17.71 21.63,-10.16 39.74,-22.74 54.43,-37.83l0 68.42z"/>
   <path id="_6" class="fil0" d="M2431.02 509.5l-50.11 0c0,-16.7 -1.61,-37.12 -4.93,-61.27 -1.61,-13.08 -3.72,-24.45 -6.44,-34.31 -2.61,-9.76 -5.13,-19.42 -7.64,-28.77l-148.2 0 0 124.35 -53.72 0 0 -460.79c41.65,22.44 80.18,51.82 115.6,88.14 41.65,42.45 75.45,90.95 101.61,145.68 17.1,35.41 30.38,74.15 39.74,115.9 9.36,41.85 14.09,78.88 14.09,111.07zm-84.92 -176.27c-5.73,-13.88 -13.38,-29.57 -22.84,-47.08 -10.66,-20.02 -21.73,-38.03 -33.2,-53.93 -23.04,-32.59 -48.49,-60.56 -76.36,-83.9l0 184.91 132.4 0z"/>
   <path id="_7" class="fil0" d="M2714.63 509.5c-22.43,-8.15 -39.74,-15.69 -52.01,-22.64 -14.69,-8.15 -29.58,-19.62 -44.87,-34.3 -15.29,-14.69 -29.48,-34.41 -42.46,-59.36 -14.29,-27.37 -21.43,-51.41 -21.43,-72.24 22.44,-2.01 43.97,-13.18 64.79,-33.6 22.44,-22.04 33.61,-46.38 33.61,-72.84 0,-28.58 -11.27,-52.62 -33.71,-72.24 -22.53,-19.62 -48.69,-29.38 -78.57,-29.38l0 396.6 -52.52 0 0 -449.12 64.29 0c42.05,0 78.37,15.1 108.96,45.28 30.58,30.18 45.87,66.3 45.87,108.35 0,31.39 -9.96,60.17 -29.98,86.22 -17.1,22.44 -38.13,39.14 -62.98,50.21 0.41,5.73 3.52,13.88 9.46,24.45 5.94,10.56 12.17,19.41 18.71,26.36 12.68,13.38 24.05,24.04 34.21,31.79 12.68,9.35 25.55,15.69 38.63,18.91l0 57.55z"/>
   <path id="_8" class="fil0" d="M3041.41 284.34c0,60.77 -20.73,113.48 -62.08,158.15 -41.45,44.67 -91.65,67.01 -150.81,67.01l-59.96 0 0 -449.12 48.89 0c61.27,0 113.79,22.04 157.86,66.1 44.06,44.07 66.1,96.69 66.1,157.86zm-53.73 -2.52c0,-45.37 -16.4,-84.81 -49.3,-118.51 -32.9,-33.71 -71.93,-50.51 -117.31,-50.51l0 344.18c46.18,0 85.42,-17.2 117.92,-51.71 32.49,-34.51 48.69,-75.66 48.69,-123.45z"/>
   <path id="_9" class="fil0" d="M3566.28 282.83c0,64.09 -22.74,119.32 -68.31,165.6 -45.48,46.38 -100.31,69.52 -164.4,69.52 -64.49,0 -120.23,-23.04 -167.11,-69.22 -46.98,-46.08 -70.42,-101.41 -70.42,-165.9 0,-63.69 23.03,-118.22 69.21,-163.49 46.08,-45.37 101.01,-68.01 164.7,-68.01 64.49,0 120.03,22.54 166.51,67.71 46.58,45.07 69.82,99.7 69.82,163.79zm-54.93 -2.52c0,-48.99 -17.61,-90.85 -52.72,-125.55 -35.11,-34.71 -77.17,-52.12 -126.27,-52.12 -49.8,0 -92.76,17.61 -128.67,52.72 -35.92,35.11 -53.93,77.57 -53.93,127.47 0,49.8 18.01,92.86 53.93,129.28 35.91,36.32 78.87,54.53 128.67,54.53 49.5,0 91.66,-18.51 126.57,-55.43 34.91,-37.03 52.42,-80.59 52.42,-130.9z"/>
   <path id="_10" class="fil0" d="M3820.41 134.23c-7.34,-6.54 -13.68,-11.17 -19.01,-13.98 -16.3,-9.76 -32.3,-14.59 -47.79,-14.59 -21.23,0 -40.95,8.15 -59.16,24.45 -18.21,16.29 -27.26,35.91 -27.26,58.75 0,24.45 11.06,46.48 33.1,66.1 20.42,17.91 40.74,35.92 61.17,53.83 22.43,26.56 33.7,59.96 33.7,100.4 0,21.53 -5.13,43.16 -15.29,64.8 -7.75,16.7 -15.9,28.57 -24.45,35.51l-74.65 0c18.81,-15.9 32.7,-30.79 41.65,-44.67 11.87,-18.41 17.81,-38.03 17.81,-58.86 0,-28.97 -10.87,-53.92 -32.5,-74.75 -20.42,-17.5 -40.74,-35.31 -61.17,-53.32 -22.03,-24.85 -33.1,-55.94 -33.1,-93.06 0,-36.73 14.49,-67.71 43.47,-92.86 28.97,-25.06 61.27,-37.63 96.78,-37.63 22.84,0 45.07,7.14 66.7,21.53l0 58.35z"/>
   <path id="_11" class="fil0" d="M4344.99 282.83c0,64.09 -22.74,119.32 -68.31,165.6 -45.48,46.38 -100.31,69.52 -164.4,69.52 -64.49,0 -120.23,-23.04 -167.11,-69.22 -46.98,-46.08 -70.42,-101.41 -70.42,-165.9 0,-63.69 23.03,-118.22 69.21,-163.49 46.08,-45.37 101.01,-68.01 164.7,-68.01 64.49,0 120.03,22.54 166.51,67.71 46.58,45.07 69.82,99.7 69.82,163.79zm-54.93 -2.52c0,-48.99 -17.61,-90.85 -52.72,-125.55 -35.11,-34.71 -77.17,-52.12 -126.27,-52.12 -49.8,0 -92.76,17.61 -128.67,52.72 -35.92,35.11 -53.93,77.57 -53.93,127.47 0,49.8 18.01,92.86 53.93,129.28 35.91,36.32 78.87,54.53 128.67,54.53 49.5,0 91.66,-18.51 126.57,-55.43 34.91,-37.03 52.42,-80.59 52.42,-130.9z"/>
   <path class="fil0" d="M1225.56 1057.85l-34.54 0 0 -61.92c0,-21.15 -2.61,-39.51 -7.76,-55.14 -5.15,-15.64 -14.11,-32.66 -26.9,-51.08 -6.66,-9.58 -15.51,-19.39 -26.54,-29.51 -13.75,-12.54 -27.81,-22.36 -42.05,-29.51l0 227.16 -32.35 0 0 -275.21c15.75,4.43 29.08,9.33 39.87,14.79 10.84,5.39 22.9,12.96 36.23,22.72 13.27,9.69 25.27,20.6 35.81,32.66 9.39,10.3 17.75,21.63 25.14,33.93l0 -99.55 33.09 0 0 270.66z"/>
   <path id="_1_0" class="fil0" d="M1409.09 978.96c0,23.57 -5.39,42.72 -16.24,57.44 -12.54,17.21 -30.72,25.81 -54.59,25.81 -24.12,0 -43.14,-7.57 -57.02,-22.66 -13.87,-15.09 -20.84,-33.81 -20.84,-56.17l0 -196.01 31.63 0 0 193.83c0,14.24 3.45,25.81 10.36,34.66 7.87,10.3 19.21,15.45 34.05,15.45 15.51,0 26.48,-5.88 32.9,-17.69 4.67,-8.61 7.03,-20.6 7.03,-36.11l0 -190.14 32.72 0 0 191.59z"/>
   <path id="_2_1" class="fil0" d="M1605.41 811.3l-14.78 28.42c-15.27,-12.54 -32.78,-20.54 -52.48,-23.99l0 242.12 -33.44 0 0 -241.76c-10.36,1.7 -19.76,4.54 -28.24,8.48 -8.54,3.94 -16.72,9.09 -24.6,15.51l-16.24 -27.69c12.06,-9.03 25.33,-16.11 39.87,-21.14 14.48,-5.03 29.63,-7.52 45.39,-7.52 15.26,0 30.23,2.37 44.83,7.15 14.67,4.79 27.88,11.64 39.69,20.42z"/>
   <path id="_3_2" class="fil0" d="M1774.76 1057.85c-13.51,-4.91 -23.93,-9.45 -31.33,-13.63 -8.84,-4.91 -17.81,-11.82 -27.02,-20.66 -9.21,-8.85 -17.75,-20.73 -25.57,-35.75 -8.6,-16.48 -12.9,-30.97 -12.9,-43.51 13.51,-1.21 26.47,-7.94 39.02,-20.24 13.51,-13.27 20.23,-27.93 20.23,-43.86 0,-17.21 -6.78,-31.69 -20.29,-43.51 -13.58,-11.81 -29.33,-17.69 -47.33,-17.69l0 238.85 -31.63 0 0 -270.48 38.72 0c25.33,0 47.2,9.09 65.62,27.27 18.42,18.17 27.63,39.92 27.63,65.25 0,18.91 -6,36.24 -18.05,51.93 -10.3,13.51 -22.97,23.57 -37.93,30.23 0.24,3.46 2.12,8.37 5.69,14.73 3.58,6.36 7.33,11.69 11.27,15.87 7.64,8.06 14.48,14.48 20.6,19.15 7.64,5.64 15.39,9.45 23.27,11.39l0 34.66z"/>
   <polygon id="_4_3" class="fil0" points="1843.23,1057.85 1810.15,1057.85 1810.15,787.37 1843.23,787.37 "/>
   <path id="_5_4" class="fil0" d="M2097.23 1039.43c-12.72,8.3 -25.26,14.3 -37.56,18 -12.3,3.69 -26.3,5.51 -41.99,5.51 -39.09,0 -72.41,-14.3 -100.04,-42.96 -27.63,-28.66 -41.45,-62.77 -41.45,-102.34 0,-37.38 13.7,-69.26 41.09,-95.73 27.38,-26.42 60.1,-39.63 98.15,-39.63 16,0 30.48,1.76 43.51,5.33 13.03,3.58 25.81,9.33 38.29,17.21l0 42.11c-11.27,-12.12 -23.26,-20.78 -35.93,-25.93 -12.66,-5.21 -27.45,-7.82 -44.41,-7.82 -29.45,0 -54.9,10.36 -76.29,31.02 -21.39,20.67 -32.05,45.63 -32.05,74.9 0,30.29 10.66,56.59 32.05,79.01 21.39,22.35 47.2,33.56 77.44,33.56 15.45,0 30.96,-3.57 46.41,-10.66 13.03,-6.12 23.94,-13.69 32.78,-22.78l0 41.2z"/>
   <polygon id="_6_5" class="fil0" points="2163.27,1057.85 2130.19,1057.85 2130.19,787.37 2163.27,787.37 "/>
   <path id="_7_6" class="fil0" d="M2483.08 921.34c0,38.59 -13.7,71.86 -41.15,99.73 -27.38,27.93 -60.41,41.87 -99,41.87 -38.84,0 -72.41,-13.88 -100.65,-41.69 -28.29,-27.75 -42.41,-61.07 -42.41,-99.91 0,-38.36 13.88,-71.2 41.69,-98.46 27.75,-27.33 60.83,-40.96 99.19,-40.96 38.84,0 72.28,13.57 100.28,40.77 28.05,27.15 42.05,60.05 42.05,98.65zm-33.09 -1.52c0,-29.51 -10.6,-54.71 -31.75,-75.62 -21.14,-20.9 -46.47,-31.38 -76.04,-31.38 -29.99,0 -55.87,10.6 -77.5,31.75 -21.63,21.14 -32.47,46.71 -32.47,76.77 0,29.99 10.84,55.92 32.47,77.86 21.63,21.87 47.51,32.84 77.5,32.84 29.81,0 55.2,-11.15 76.22,-33.39 21.03,-22.3 31.57,-48.53 31.57,-78.83z"/>
   <path id="_8_7" class="fil0" d="M2690.36 1057.85l-34.54 0 0 -61.92c0,-21.15 -2.61,-39.51 -7.76,-55.14 -5.15,-15.64 -14.11,-32.66 -26.9,-51.08 -6.66,-9.58 -15.51,-19.39 -26.54,-29.51 -13.75,-12.54 -27.81,-22.36 -42.05,-29.51l0 227.16 -32.35 0 0 -275.21c15.75,4.43 29.08,9.33 39.86,14.79 10.85,5.39 22.91,12.96 36.24,22.72 13.27,9.69 25.27,20.6 35.81,32.66 9.39,10.3 17.75,21.63 25.14,33.93l0 -99.55 33.09 0 0 270.66z"/>
   <polygon id="_9_8" class="fil0" points="2757.97,1057.85 2724.89,1057.85 2724.89,787.37 2757.97,787.37 "/>
   <path id="_10_9" class="fil0" d="M2913.03 831.84c-4.43,-3.94 -8.24,-6.72 -11.45,-8.42 -9.82,-5.88 -19.45,-8.78 -28.79,-8.78 -12.78,0 -24.66,4.9 -35.62,14.72 -10.97,9.81 -16.42,21.63 -16.42,35.38 0,14.73 6.66,28 19.93,39.81 12.3,10.79 24.54,21.63 36.84,32.42 13.51,16 20.3,36.11 20.3,60.47 0,12.97 -3.09,25.99 -9.21,39.02 -4.67,10.06 -9.57,17.21 -14.73,21.39l-44.95 0c11.33,-9.57 19.69,-18.54 25.08,-26.9 7.15,-11.09 10.73,-22.91 10.73,-35.45 0,-17.45 -6.55,-32.48 -19.58,-45.02 -12.3,-10.54 -24.54,-21.27 -36.84,-32.11 -13.26,-14.97 -19.93,-33.69 -19.93,-56.05 0,-22.12 8.73,-40.78 26.18,-55.93 17.45,-15.08 36.9,-22.66 58.28,-22.66 13.76,0 27.15,4.31 40.18,12.97l0 35.14z"/>
   <path id="_11_10" class="fil0" d="M3108.62 811.3l-14.78 28.42c-15.27,-12.54 -32.78,-20.54 -52.48,-23.99l0 242.12 -33.44 0 0 -241.76c-10.36,1.7 -19.76,4.54 -28.24,8.48 -8.54,3.94 -16.72,9.09 -24.6,15.51l-16.24 -27.69c12.06,-9.03 25.33,-16.11 39.87,-21.14 14.48,-5.03 29.63,-7.52 45.39,-7.52 15.26,0 30.23,2.37 44.83,7.15 14.67,4.79 27.88,11.64 39.69,20.42z"/>
   <path id="_12" class="fil0" d="M3301.12 1057.85l-30.18 0c0,-10.06 -0.97,-22.36 -2.97,-36.9 -0.97,-7.88 -2.24,-14.72 -3.87,-20.66 -1.58,-5.88 -3.1,-11.7 -4.61,-17.33l-89.25 0 0 74.89 -32.36 0 0 -277.51c25.09,13.51 48.29,31.2 69.62,53.08 25.09,25.57 45.45,54.77 61.2,87.74 10.3,21.32 18.3,44.65 23.93,69.8 5.64,25.2 8.49,47.5 8.49,66.89zm-51.14 -106.16c-3.46,-8.36 -8.06,-17.81 -13.76,-28.35 -6.42,-12.06 -13.08,-22.91 -19.99,-32.48 -13.88,-19.63 -29.21,-36.48 -45.99,-50.53l0 111.36 79.74 0z"/>
  </g>
 </g>
</svg>
