<?xml version="1.0" encoding="UTF-8"?>
<!DOCTYPE svg PUBLIC "-//W3C//DTD SVG 1.1//EN" "http://www.w3.org/Graphics/SVG/1.1/DTD/svg11.dtd">
<!-- Creator: CorelDRAW 2021 (64-Bit Evaluation Version) -->
<svg xmlns="http://www.w3.org/2000/svg" xml:space="preserve" width="11mm" height="19.5mm" version="1.1" style="shape-rendering:geometricPrecision; text-rendering:geometricPrecision; image-rendering:optimizeQuality; fill-rule:evenodd; clip-rule:evenodd"
viewBox="0 0 1100 1950"
 xmlns:xlink="http://www.w3.org/1999/xlink"
 xmlns:xodm="http://www.corel.com/coreldraw/odm/2003">
 <defs>
  <style type="text/css">
   <![CDATA[
    .fil0 {fill:#5CA47A;fill-rule:nonzero}
   ]]>
  </style>
 </defs>
 <g id="Camada_x0020_1">
  <metadata id="CorelCorpID_0Corel-Layer"/>
  <g id="_1884122565504">
   <path class="fil0" d="M847.86 1837.25c-47.73,31.14 -94.79,53.64 -140.93,67.51 -46.14,13.86 -98.65,20.68 -157.52,20.68 -146.62,0 -271.63,-53.64 -375.29,-161.16 -103.65,-107.51 -155.47,-235.49 -155.47,-383.92 0,-140.25 51.37,-259.81 154.11,-359.14 102.74,-99.11 225.49,-148.66 368.24,-148.66 60.01,0 114.33,6.59 163.2,20 48.87,13.41 96.84,35.01 143.66,64.56l0 157.98c-42.28,-45.47 -87.29,-77.97 -134.79,-97.29 -47.51,-19.55 -102.97,-29.32 -166.62,-29.32 -110.47,0 -205.94,38.87 -286.18,116.38 -80.24,77.51 -120.24,171.16 -120.24,280.95 0,113.65 40,212.3 120.24,296.41 80.24,83.87 177.07,125.92 290.5,125.92 57.96,0 116.15,-13.41 174.12,-40 48.87,-22.96 89.78,-51.37 122.97,-85.47l0 154.57z"/>
   <polygon class="fil0" points="1081.35,1482.77 519.5,1482.77 519.5,24.57 695.89,24.57 695.89,1312.25 1081.35,1312.25 "/>
  </g>
 </g>
</svg>
