<?xml version="1.0" encoding="UTF-8"?>
<!DOCTYPE svg PUBLIC "-//W3C//DTD SVG 1.1//EN" "http://www.w3.org/Graphics/SVG/1.1/DTD/svg11.dtd">
<!-- Creator: CorelDRAW 2021 (64-Bit Evaluation Version) -->
<svg xmlns="http://www.w3.org/2000/svg" xml:space="preserve" width="57.5mm" height="18mm" version="1.1" style="shape-rendering:geometricPrecision; text-rendering:geometricPrecision; image-rendering:optimizeQuality; fill-rule:evenodd; clip-rule:evenodd"
viewBox="0 0 5750 1800"
 xmlns:xlink="http://www.w3.org/1999/xlink"
 xmlns:xodm="http://www.corel.com/coreldraw/odm/2003">
 <defs>
  <style type="text/css">
   <![CDATA[
    .fil0 {fill:#373435;fill-rule:nonzero}
    .fil1 {fill:#5CA47A;fill-rule:nonzero}
   ]]>
  </style>
 </defs>
 <g id="Camada_x0020_1">
  <metadata id="CorelCorpID_0Corel-Layer"/>
  <g id="_2184847221504">
   <polygon class="fil0" points="1398.82,862.73 1225.77,862.73 1225.77,413.6 1280.1,413.6 1280.1,810.21 1398.82,810.21 "/>
   <path id="_1" class="fil0" d="M1700.35 731.73c0,39.14 -8.95,70.93 -26.96,95.38 -20.83,28.58 -51.01,42.86 -90.65,42.86 -40.04,0 -71.64,-12.57 -94.68,-37.62 -23.04,-25.06 -34.61,-56.15 -34.61,-93.27l0 -325.48 52.52 0 0 321.86c0,23.64 5.74,42.86 17.21,57.55 13.08,17.1 31.89,25.65 56.54,25.65 25.76,0 43.97,-9.76 54.63,-29.38 7.75,-14.28 11.67,-34.2 11.67,-59.96l0 -315.72 54.33 0 0 318.13z"/>
   <path id="_2" class="fil0" d="M2116.89 832.14c-21.13,13.79 -41.95,23.75 -62.38,29.89 -20.42,6.13 -43.66,9.15 -69.72,9.15 -64.9,0 -120.23,-23.74 -166.11,-71.33 -45.88,-47.59 -68.82,-104.24 -68.82,-169.94 0,-62.07 22.74,-114.99 68.21,-158.96 45.48,-43.87 99.81,-65.8 163,-65.8 26.56,0 50.6,2.92 72.23,8.85 21.64,5.94 42.86,15.5 63.59,28.58l0 69.92c-18.71,-20.12 -38.63,-34.51 -59.66,-43.06 -21.03,-8.65 -45.58,-12.98 -73.75,-12.98 -48.9,0 -91.15,17.2 -126.67,51.51 -35.52,34.31 -53.22,75.76 -53.22,124.36 0,50.31 17.7,93.97 53.22,131.2 35.52,37.12 78.38,55.74 128.58,55.74 25.66,0 51.41,-5.94 77.07,-17.71 21.63,-10.16 39.74,-22.74 54.43,-37.83l0 68.41z"/>
   <path id="_3" class="fil0" d="M2437.85 862.73l-50.11 0c0,-16.7 -1.61,-37.13 -4.93,-61.27 -1.61,-13.08 -3.72,-24.45 -6.44,-34.31 -2.61,-9.76 -5.13,-19.42 -7.64,-28.78l-148.21 0 0 124.36 -53.72 0 0 -460.8c41.65,22.43 80.19,51.81 115.6,88.13 41.65,42.46 75.46,90.96 101.62,145.69 17.1,35.42 30.38,74.15 39.74,115.9 9.36,41.86 14.09,78.88 14.09,111.08zm-84.92 -176.27c-5.74,-13.89 -13.38,-29.58 -22.84,-47.09 -10.66,-20.02 -21.73,-38.03 -33.2,-53.93 -23.04,-32.59 -48.5,-60.56 -76.37,-83.91l0 184.93 132.41 0z"/>
   <path id="_4" class="fil0" d="M2688.57 487.45c-7.34,-6.54 -13.68,-11.17 -19.01,-13.99 -16.3,-9.76 -32.3,-14.59 -47.79,-14.59 -21.23,0 -40.95,8.15 -59.16,24.45 -18.21,16.3 -27.27,35.92 -27.27,58.76 0,24.45 11.07,46.48 33.1,66.1 20.43,17.91 40.75,35.92 61.17,53.83 22.44,26.56 33.71,59.96 33.71,100.41 0,21.53 -5.13,43.16 -15.29,64.79 -7.75,16.71 -15.9,28.58 -24.45,35.52l-74.66 0c18.82,-15.9 32.7,-30.79 41.66,-44.67 11.87,-18.41 17.8,-38.03 17.8,-58.86 0,-28.98 -10.86,-53.93 -32.49,-74.75 -20.43,-17.51 -40.75,-35.32 -61.17,-53.33 -22.04,-24.85 -33.11,-55.94 -33.11,-93.06 0,-36.73 14.49,-67.72 43.47,-92.87 28.97,-25.05 61.27,-37.63 96.79,-37.63 22.84,0 45.07,7.15 66.7,21.53l0 58.36z"/>
   <path id="_5" class="fil0" d="M3244.76 832.14c-21.13,13.79 -41.95,23.75 -62.38,29.89 -20.42,6.13 -43.66,9.15 -69.72,9.15 -64.9,0 -120.23,-23.74 -166.11,-71.33 -45.88,-47.59 -68.82,-104.24 -68.82,-169.94 0,-62.07 22.74,-114.99 68.21,-158.96 45.48,-43.87 99.81,-65.8 163,-65.8 26.56,0 50.6,2.92 72.23,8.85 21.64,5.94 42.86,15.5 63.59,28.58l0 69.92c-18.71,-20.12 -38.63,-34.51 -59.66,-43.06 -21.03,-8.65 -45.58,-12.98 -73.75,-12.98 -48.9,0 -91.15,17.2 -126.67,51.51 -35.52,34.31 -53.22,75.76 -53.22,124.36 0,50.31 17.7,93.97 53.22,131.2 35.52,37.12 78.38,55.74 128.58,55.74 25.66,0 51.41,-5.94 77.07,-17.71 21.63,-10.16 39.74,-22.74 54.43,-37.83l0 68.41z"/>
   <path id="_6" class="fil0" d="M3573.06 862.73l-50.11 0c0,-16.7 -1.61,-37.13 -4.93,-61.27 -1.61,-13.08 -3.72,-24.45 -6.44,-34.31 -2.61,-9.76 -5.13,-19.42 -7.64,-28.78l-148.21 0 0 124.36 -53.72 0 0 -460.8c41.65,22.43 80.19,51.81 115.6,88.13 41.65,42.46 75.46,90.96 101.62,145.69 17.1,35.42 30.38,74.15 39.74,115.9 9.36,41.86 14.09,78.88 14.09,111.08zm-84.92 -176.27c-5.74,-13.89 -13.38,-29.58 -22.84,-47.09 -10.66,-20.02 -21.73,-38.03 -33.2,-53.93 -23.04,-32.59 -48.5,-60.56 -76.37,-83.91l0 184.93 132.41 0z"/>
   <path id="_7" class="fil0" d="M3856.68 862.73c-22.43,-8.15 -39.74,-15.7 -52.01,-22.64 -14.69,-8.15 -29.58,-19.62 -44.88,-34.31 -15.29,-14.69 -29.48,-34.41 -42.46,-59.36 -14.28,-27.36 -21.43,-51.41 -21.43,-72.24 22.44,-2.01 43.97,-13.18 64.8,-33.6 22.43,-22.03 33.6,-46.38 33.6,-72.84 0,-28.58 -11.27,-52.62 -33.7,-72.24 -22.54,-19.62 -48.7,-29.38 -78.58,-29.38l0 396.61 -52.52 0 0 -449.13 64.29 0c42.06,0 78.38,15.09 108.96,45.27 30.59,30.19 45.88,66.31 45.88,108.36 0,31.39 -9.96,60.17 -29.98,86.23 -17.1,22.43 -38.13,39.14 -62.98,50.2 0.4,5.74 3.52,13.89 9.46,24.45 5.93,10.57 12.17,19.42 18.71,26.36 12.68,13.38 24.05,24.05 34.21,31.8 12.67,9.35 25.55,15.69 38.63,18.91l0 57.55z"/>
   <path id="_8" class="fil0" d="M4183.47 637.56c0,60.77 -20.73,113.49 -62.08,158.16 -41.45,44.67 -91.66,67.01 -150.82,67.01l-59.96 0 0 -449.13 48.9 0c61.27,0 113.79,22.03 157.85,66.1 44.07,44.07 66.11,96.69 66.11,157.86zm-53.73 -2.51c0,-45.38 -16.4,-84.82 -49.3,-118.52 -32.9,-33.71 -71.94,-50.51 -117.31,-50.51l0 344.19c46.18,0 85.42,-17.2 117.91,-51.71 32.5,-34.51 48.7,-75.66 48.7,-123.45z"/>
   <path id="_9" class="fil0" d="M4708.36 636.05c0,64.09 -22.74,119.33 -68.32,165.61 -45.48,46.38 -100.31,69.52 -164.4,69.52 -64.49,0 -120.23,-23.04 -167.12,-69.22 -46.98,-46.08 -70.42,-101.42 -70.42,-165.91 0,-63.69 23.04,-118.22 69.22,-163.49 46.08,-45.38 101.01,-68.02 164.7,-68.02 64.49,0 120.03,22.54 166.51,67.72 46.58,45.07 69.83,99.7 69.83,163.79zm-54.94 -2.51c0,-49 -17.61,-90.86 -52.72,-125.57 -35.11,-34.71 -77.17,-52.11 -126.27,-52.11 -49.8,0 -92.76,17.6 -128.68,52.72 -35.92,35.11 -53.93,77.57 -53.93,127.47 0,49.8 18.01,92.87 53.93,129.29 35.92,36.32 78.88,54.53 128.68,54.53 49.5,0 91.66,-18.51 126.57,-55.44 34.91,-37.02 52.42,-80.59 52.42,-130.89z"/>
   <path id="_10" class="fil0" d="M4962.5 487.45c-7.34,-6.54 -13.68,-11.17 -19.01,-13.99 -16.3,-9.76 -32.3,-14.59 -47.79,-14.59 -21.23,0 -40.95,8.15 -59.16,24.45 -18.21,16.3 -27.27,35.92 -27.27,58.76 0,24.45 11.07,46.48 33.1,66.1 20.43,17.91 40.75,35.92 61.17,53.83 22.44,26.56 33.71,59.96 33.71,100.41 0,21.53 -5.13,43.16 -15.29,64.79 -7.75,16.71 -15.9,28.58 -24.45,35.52l-74.66 0c18.82,-15.9 32.7,-30.79 41.66,-44.67 11.87,-18.41 17.8,-38.03 17.8,-58.86 0,-28.98 -10.86,-53.93 -32.49,-74.75 -20.43,-17.51 -40.75,-35.32 -61.17,-53.33 -22.04,-24.85 -33.11,-55.94 -33.11,-93.06 0,-36.73 14.49,-67.72 43.47,-92.87 28.97,-25.05 61.27,-37.63 96.79,-37.63 22.84,0 45.07,7.15 66.7,21.53l0 58.36z"/>
   <path id="_11" class="fil0" d="M5487.1 636.05c0,64.09 -22.74,119.33 -68.32,165.61 -45.48,46.38 -100.31,69.52 -164.4,69.52 -64.49,0 -120.23,-23.04 -167.12,-69.22 -46.98,-46.08 -70.42,-101.42 -70.42,-165.91 0,-63.69 23.04,-118.22 69.22,-163.49 46.08,-45.38 101.01,-68.02 164.7,-68.02 64.49,0 120.03,22.54 166.51,67.72 46.58,45.07 69.83,99.7 69.83,163.79zm-54.94 -2.51c0,-49 -17.61,-90.86 -52.72,-125.57 -35.11,-34.71 -77.17,-52.11 -126.27,-52.11 -49.8,0 -92.76,17.6 -128.68,52.72 -35.92,35.11 -53.93,77.57 -53.93,127.47 0,49.8 18.01,92.87 53.93,129.29 35.92,36.32 78.88,54.53 128.68,54.53 49.5,0 91.66,-18.51 126.57,-55.44 34.91,-37.02 52.42,-80.59 52.42,-130.89z"/>
   <path class="fil0" d="M2367.51 1411.08l-34.54 0 0 -61.93c0,-21.14 -2.6,-39.5 -7.75,-55.14 -5.15,-15.63 -14.12,-32.66 -26.9,-51.08 -6.67,-9.57 -15.52,-19.39 -26.54,-29.51 -13.76,-12.54 -27.82,-22.35 -42.06,-29.5l0 227.16 -32.35 0 0 -275.21c15.75,4.42 29.08,9.33 39.87,14.78 10.84,5.39 22.9,12.97 36.23,22.72 13.27,9.7 25.27,20.6 35.81,32.66 9.39,10.3 17.76,21.63 25.15,33.93l0 -99.55 33.08 0 0 270.67z"/>
   <path id="_1_0" class="fil0" d="M2551.05 1332.19c0,23.57 -5.39,42.72 -16.23,57.44 -12.55,17.21 -30.73,25.81 -54.6,25.81 -24.12,0 -43.14,-7.57 -57.02,-22.66 -13.87,-15.09 -20.84,-33.81 -20.84,-56.17l0 -196.02 31.63 0 0 193.84c0,14.24 3.45,25.81 10.36,34.66 7.88,10.3 19.21,15.45 34.05,15.45 15.51,0 26.48,-5.88 32.9,-17.69 4.67,-8.61 7.03,-20.6 7.03,-36.12l0 -190.14 32.72 0 0 191.6z"/>
   <path id="_2_1" class="fil0" d="M2747.38 1164.53l-14.79 28.41c-15.27,-12.54 -32.78,-20.54 -52.47,-23.99l0 242.13 -33.45 0 0 -241.77c-10.36,1.7 -19.75,4.55 -28.24,8.49 -8.54,3.93 -16.72,9.08 -24.6,15.51l-16.24 -27.69c12.06,-9.03 25.33,-16.12 39.87,-21.15 14.49,-5.03 29.63,-7.51 45.39,-7.51 15.27,0 30.23,2.36 44.84,7.15 14.66,4.78 27.87,11.63 39.69,20.42z"/>
   <path id="_3_2" class="fil0" d="M2916.73 1411.08c-13.51,-4.91 -23.93,-9.45 -31.32,-13.63 -8.85,-4.91 -17.82,-11.82 -27.03,-20.67 -9.21,-8.84 -17.75,-20.72 -25.57,-35.75 -8.6,-16.48 -12.9,-30.96 -12.9,-43.5 13.51,-1.21 26.48,-7.94 39.02,-20.24 13.51,-13.27 20.24,-27.93 20.24,-43.87 0,-17.21 -6.79,-31.69 -20.3,-43.51 -13.57,-11.81 -29.33,-17.69 -47.33,-17.69l0 238.86 -31.62 0 0 -270.49 38.71 0c25.33,0 47.21,9.09 65.63,27.27 18.42,18.18 27.63,39.93 27.63,65.26 0,18.9 -6,36.23 -18.06,51.93 -10.3,13.51 -22.96,23.57 -37.93,30.23 0.24,3.46 2.12,8.36 5.69,14.73 3.58,6.36 7.34,11.69 11.28,15.87 7.63,8.06 14.48,14.48 20.6,19.15 7.63,5.63 15.39,9.45 23.26,11.39l0 34.66z"/>
   <polygon id="_4_3" class="fil0" points="2985.21,1411.08 2952.12,1411.08 2952.12,1140.59 2985.21,1140.59 "/>
   <path id="_5_4" class="fil0" d="M3239.21 1392.66c-12.72,8.3 -25.27,14.3 -37.57,18 -12.3,3.69 -26.3,5.51 -41.99,5.51 -39.08,0 -72.41,-14.3 -100.04,-42.96 -27.63,-28.66 -41.44,-62.78 -41.44,-102.34 0,-37.39 13.69,-69.26 41.08,-95.74 27.39,-26.42 60.11,-39.63 98.16,-39.63 16,0 30.48,1.76 43.5,5.33 13.03,3.58 25.82,9.34 38.3,17.21l0 42.11c-11.27,-12.11 -23.27,-20.78 -35.93,-25.93 -12.67,-5.21 -27.45,-7.82 -44.42,-7.82 -29.45,0 -54.89,10.37 -76.28,31.03 -21.39,20.66 -32.06,45.62 -32.06,74.89 0,30.3 10.67,56.6 32.06,79.01 21.39,22.36 47.2,33.57 77.43,33.57 15.46,0 30.97,-3.57 46.42,-10.66 13.03,-6.12 23.93,-13.69 32.78,-22.78l0 41.2z"/>
   <polygon id="_6_5" class="fil0" points="3305.26,1411.08 3272.17,1411.08 3272.17,1140.59 3305.26,1140.59 "/>
   <path id="_7_6" class="fil0" d="M3625.06 1274.56c0,38.6 -13.69,71.87 -41.14,99.74 -27.39,27.93 -60.41,41.87 -99.01,41.87 -38.84,0 -72.41,-13.88 -100.64,-41.69 -28.3,-27.75 -42.42,-61.08 -42.42,-99.92 0,-38.35 13.88,-71.19 41.69,-98.46 27.75,-27.33 60.83,-40.96 99.19,-40.96 38.84,0 72.29,13.57 100.28,40.78 28.06,27.14 42.05,60.05 42.05,98.64zm-33.08 -1.51c0,-29.51 -10.6,-54.72 -31.75,-75.62 -21.15,-20.91 -46.48,-31.39 -76.05,-31.39 -29.99,0 -55.86,10.6 -77.49,31.75 -21.64,21.15 -32.48,46.72 -32.48,76.77 0,30 10.84,55.93 32.48,77.87 21.63,21.87 47.5,32.84 77.49,32.84 29.82,0 55.21,-11.15 76.23,-33.39 21.03,-22.3 31.57,-48.53 31.57,-78.83z"/>
   <path id="_8_7" class="fil0" d="M3832.35 1411.08l-34.54 0 0 -61.93c0,-21.14 -2.6,-39.5 -7.75,-55.14 -5.15,-15.63 -14.12,-32.66 -26.91,-51.08 -6.66,-9.57 -15.51,-19.39 -26.54,-29.51 -13.75,-12.54 -27.81,-22.35 -42.05,-29.5l0 227.16 -32.35 0 0 -275.21c15.75,4.42 29.08,9.33 39.87,14.78 10.84,5.39 22.9,12.97 36.23,22.72 13.27,9.7 25.27,20.6 35.81,32.66 9.39,10.3 17.76,21.63 25.15,33.93l0 -99.55 33.08 0 0 270.67z"/>
   <polygon id="_9_8" class="fil0" points="3899.98,1411.08 3866.89,1411.08 3866.89,1140.59 3899.98,1140.59 "/>
   <path id="_10_9" class="fil0" d="M4055.03 1185.07c-4.42,-3.94 -8.24,-6.73 -11.45,-8.43 -9.82,-5.87 -19.45,-8.78 -28.78,-8.78 -12.79,0 -24.66,4.91 -35.63,14.72 -10.97,9.82 -16.42,21.63 -16.42,35.39 0,14.72 6.66,27.99 19.93,39.81 12.3,10.78 24.54,21.63 36.84,32.42 13.52,15.99 20.3,36.11 20.3,60.47 0,12.97 -3.09,25.99 -9.21,39.02 -4.66,10.06 -9.57,17.21 -14.72,21.39l-44.96 0c11.33,-9.57 19.69,-18.54 25.08,-26.9 7.15,-11.09 10.73,-22.91 10.73,-35.45 0,-17.45 -6.55,-32.48 -19.57,-45.02 -12.3,-10.54 -24.54,-21.27 -36.84,-32.12 -13.27,-14.96 -19.94,-33.69 -19.94,-56.04 0,-22.12 8.73,-40.78 26.18,-55.93 17.45,-15.09 36.9,-22.66 58.29,-22.66 13.75,0 27.14,4.3 40.17,12.96l0 35.15z"/>
   <path id="_11_10" class="fil0" d="M4250.63 1164.53l-14.79 28.41c-15.27,-12.54 -32.78,-20.54 -52.47,-23.99l0 242.13 -33.45 0 0 -241.77c-10.36,1.7 -19.75,4.55 -28.24,8.49 -8.54,3.93 -16.72,9.08 -24.6,15.51l-16.24 -27.69c12.06,-9.03 25.33,-16.12 39.87,-21.15 14.49,-5.03 29.63,-7.51 45.39,-7.51 15.27,0 30.23,2.36 44.84,7.15 14.66,4.78 27.87,11.63 39.69,20.42z"/>
   <path id="_12" class="fil0" d="M4443.13 1411.08l-30.17 0c0,-10.06 -0.97,-22.36 -2.97,-36.9 -0.97,-7.88 -2.24,-14.73 -3.88,-20.66 -1.58,-5.88 -3.09,-11.7 -4.61,-17.33l-89.25 0 0 74.89 -32.36 0 0 -277.52c25.09,13.51 48.3,31.21 69.62,53.08 25.09,25.57 45.45,54.78 61.2,87.74 10.3,21.33 18.3,44.66 23.94,69.8 5.63,25.21 8.48,47.51 8.48,66.9zm-51.14 -106.16c-3.45,-8.36 -8.06,-17.81 -13.75,-28.36 -6.43,-12.06 -13.09,-22.9 -20,-32.48 -13.88,-19.63 -29.21,-36.47 -45.99,-50.53l0 111.37 79.74 0z"/>
  </g>
  <g id="_2184847221648">
   <path class="fil1" d="M858.62 1474.86c-33.66,21.96 -66.84,37.83 -99.38,47.61 -32.53,9.78 -69.56,14.58 -111.07,14.58 -103.39,0 -191.54,-37.82 -264.63,-113.64 -73.09,-75.81 -109.64,-166.05 -109.64,-270.72 0,-98.89 36.23,-183.2 108.68,-253.24 72.44,-69.89 159,-104.83 259.66,-104.83 42.31,0 80.62,4.65 115.08,14.11 34.46,9.45 68.28,24.68 101.3,45.52l0 111.39c-29.81,-32.05 -61.55,-54.97 -95.05,-68.6 -33.5,-13.78 -72.61,-20.67 -117.49,-20.67 -77.9,0 -145.21,27.4 -201.79,82.06 -56.58,54.66 -84.79,120.69 -84.79,198.11 0,80.14 28.21,149.71 84.79,209.01 56.58,59.15 124.86,88.8 204.84,88.8 40.87,0 81.9,-9.46 122.77,-28.21 34.47,-16.19 63.32,-36.23 86.72,-60.27l0 108.99z"/>
   <polygon class="fil1" points="1023.27,1224.91 627.08,1224.91 627.08,196.66 751.46,196.66 751.46,1104.67 1023.27,1104.67 "/>
  </g>
 </g>
</svg>
